<svg xmlns="http://www.w3.org/2000/svg" viewBox="0 0 841.9 595.3"><g transform="translate(0.000000,225.000000) scale(0.100000,-0.100000)"
                                                                     fill="#ff0000" stroke="none">
    <path d="M879 2226 c-76 -17 -89 -23 -89 -41 0 -11 12 -15 50 -15 48 0 50 -1
65 -36 19 -46 19 -78 0 -94 -25 -21 -19 -87 10 -116 35 -35 63 -28 91 21 23
42 79 77 178 111 82 28 170 134 138 166 -6 6 -46 13 -89 15 l-78 3 54 -15 c29
-8 57 -18 62 -21 35 -21 -37 -100 -113 -124 -79 -25 -123 -51 -164 -97 l-41
-46 -18 26 c-16 25 -16 30 -1 67 21 52 20 65 -5 117 -12 24 -19 47 -15 50 3 3
34 14 68 24 l63 18 -55 -1 c-30 0 -80 -6 -111 -12z"/>
    <path d="M591 2106 c-26 -14 -50 -51 -51 -78 0 -26 -19 -32 -40 -13 -28 25
-55 11 -140 -74 -117 -117 -203 -257 -249 -405 -32 -105 -29 -133 24 -195 27
-32 50 -70 56 -97 16 -64 58 -115 120 -148 103 -55 113 -76 88 -184 -11 -45
-10 -54 14 -106 15 -31 53 -85 85 -119 32 -34 64 -75 70 -92 16 -43 58 -214
77 -319 9 -49 25 -105 35 -125 26 -51 75 -106 87 -98 6 4 9 64 7 157 -4 177 7
216 81 315 l45 60 0 121 0 122 -59 22 c-42 15 -68 33 -90 61 l-32 39 -140 0
-140 0 2 67 c2 66 2 68 -29 86 -28 17 -30 20 -20 48 14 40 6 45 -30 19 -47
-35 -62 -22 -62 53 0 71 14 92 66 103 55 10 68 -12 75 -123 7 -96 7 -95 5 30
-1 91 1 127 10 127 6 0 37 43 69 96 40 68 70 105 101 127 38 27 44 36 44 68 0
35 2 38 56 59 31 13 58 29 61 37 7 17 -64 123 -82 123 -8 0 -16 -6 -19 -12 -3
-9 -9 -7 -20 7 -31 41 -37 45 -65 45 -26 0 -29 -4 -34 -41 -6 -44 -53 -149
-67 -149 -5 0 -10 10 -12 22 -2 14 -20 32 -48 48 -64 37 -63 56 7 116 32 28
72 61 90 73 17 13 34 35 38 48 5 20 11 24 37 21 17 -2 36 -11 42 -21 9 -14 6
-21 -19 -41 l-29 -23 31 -17 c36 -18 71 -20 93 -6 12 7 12 12 2 22 -20 20 -14
28 24 28 l36 0 -47 54 c-41 48 -86 77 -119 76 -6 -1 -22 -7 -35 -14z m116 -72
c3 -8 2 -22 -2 -31 -7 -17 -8 -16 -13 2 -2 10 -11 30 -20 44 -16 24 -16 24 6
12 13 -7 26 -19 29 -27z m-233 -56 c-5 -7 -29 -32 -55 -56 -81 -72 -78 -99 18
-171 52 -40 70 -48 84 -40 27 14 48 48 65 107 17 57 24 62 54 32 11 -11 29
-20 40 -20 10 0 30 -12 44 -27 29 -31 21 -59 -19 -69 -31 -8 -65 -49 -65 -79
0 -13 -15 -34 -40 -54 -23 -18 -57 -58 -77 -89 -97 -152 -97 -152 -126 -152
-40 0 -92 -24 -111 -51 -9 -14 -16 -43 -16 -71 0 -27 -4 -48 -10 -48 -5 0 -25
33 -43 73 -19 39 -48 89 -66 111 -19 24 -31 50 -31 69 0 34 37 143 76 219 59
119 176 263 249 309 35 22 39 23 29 7z m262 -1098 c24 -22 60 -46 80 -55 21
-9 42 -21 46 -28 4 -7 8 -54 8 -105 l0 -93 -46 -64 c-68 -97 -87 -158 -82
-277 5 -108 0 -128 -25 -100 -17 18 -25 49 -73 267 -36 161 -57 214 -106 266
-73 76 -108 136 -108 183 0 24 2 45 4 47 2 2 62 3 132 1 l128 -3 42 -39z"/>
    <path d="M1293 2020 c-27 -11 -30 -37 -5 -42 35 -8 89 23 76 44 -7 10 -43 9
-71 -2z"/>
    <path d="M1644 1960 c-10 -12 -38 -34 -61 -50 -41 -28 -83 -95 -83 -130 0 -22
20 -40 46 -40 12 0 27 -7 35 -16 7 -8 26 -22 42 -31 27 -13 31 -13 45 1 12 12
13 19 5 27 -15 15 -4 81 16 96 24 19 92 16 106 -4 16 -22 8 -51 -17 -59 -14
-4 -29 3 -49 22 -21 20 -29 23 -29 12 0 -8 9 -23 20 -33 10 -9 18 -22 17 -28
-3 -18 35 -20 45 -3 5 9 22 16 38 16 16 0 32 5 35 10 10 16 45 12 45 -5 0 -29
-29 -75 -44 -69 -8 3 -17 0 -21 -6 -7 -11 -66 -4 -97 12 -12 6 -25 4 -40 -6
-33 -20 -177 -59 -195 -52 -26 10 -66 -22 -59 -47 7 -26 -10 -47 -38 -47 -45
0 -61 -47 -29 -83 17 -18 17 -19 -2 -33 -31 -23 -40 -12 -46 57 l-6 64 1 -70
1 -70 40 0 c33 0 41 4 43 22 5 33 26 45 63 36 33 -9 59 -36 46 -49 -4 -4 -26
-11 -50 -15 -40 -6 -39 -7 20 -8 56 -1 61 1 56 19 -7 25 1 25 35 1 15 -10 43
-21 63 -24 32 -5 36 -3 32 13 -8 31 -32 46 -52 33 -13 -8 -22 -7 -36 4 -11 7
-20 18 -20 23 0 17 -16 24 -61 26 -53 2 -69 14 -59 43 4 15 15 21 35 21 16 0
31 4 35 9 9 16 122 -28 128 -49 3 -11 17 -24 31 -30 14 -5 27 -17 27 -27 1
-10 2 -29 3 -43 1 -18 7 -25 21 -25 25 0 32 31 12 53 -20 24 -28 50 -17 57 14
9 12 49 -2 63 -7 7 -23 12 -36 12 -13 0 -20 4 -17 10 3 6 24 10 45 10 33 0 40
-4 45 -22 19 -86 21 -107 13 -122 -7 -12 -5 -25 6 -42 18 -26 45 -31 64 -12
15 15 16 54 2 63 -11 7 5 45 19 45 5 0 14 -15 22 -32 16 -40 29 -50 46 -37 14
13 6 39 -12 39 -16 0 -28 31 -20 52 3 8 27 20 52 25 38 9 51 8 69 -4 13 -8 27
-13 31 -11 4 1 14 -15 21 -37 12 -36 11 -40 -10 -61 -17 -17 -39 -24 -87 -27
-57 -5 -80 -16 -81 -38 0 -3 9 -14 20 -24 25 -23 27 -65 3 -65 -21 1 -66 38
-76 64 -10 25 -42 16 -42 -11 0 -13 -6 -28 -13 -35 -7 -7 -12 -27 -12 -46 0
-26 4 -33 18 -30 11 2 17 13 18 34 1 17 4 36 8 42 10 17 85 -38 86 -64 0 -24
18 -44 40 -44 20 0 50 31 50 52 0 28 69 105 100 112 37 7 51 47 26 75 -9 10
-16 28 -16 40 0 12 -5 32 -12 44 -7 12 -12 36 -12 52 -1 21 -8 33 -23 40 -28
12 -33 25 -39 100 -3 33 -14 80 -25 104 -10 24 -19 50 -19 58 0 7 -8 17 -17
20 -21 8 -46 39 -53 67 -8 29 -36 43 -58 30 -18 -12 -149 -11 -160 0 -9 10
-18 7 -38 -14z m182 -41 c12 -13 27 -19 42 -16 17 3 28 -2 40 -20 15 -25 15
-26 -19 -54 -42 -35 -44 -35 -71 -4 -17 19 -31 25 -65 25 -30 0 -49 6 -63 20
-25 25 -34 25 -57 1 -10 -10 -26 -20 -36 -22 -25 -5 -17 -25 9 -21 35 4 49
-22 35 -68 -6 -22 -15 -40 -20 -40 -17 0 -41 38 -35 54 4 11 -2 26 -17 42 -31
33 -20 50 61 92 79 40 165 45 196 11z m128 -105 c14 -14 19 -26 31 -86 5 -30
-14 -20 -21 10 -12 54 -12 54 -57 47 l-42 -6 30 26 c35 29 39 30 59 9z m-4
-103 c5 -11 10 -27 10 -35 0 -8 12 -27 26 -41 14 -14 24 -33 22 -42 -4 -21
-91 -45 -134 -37 -35 6 -46 -4 -49 -45 -3 -47 -5 -51 -19 -51 -13 0 -32 92
-27 133 3 21 -24 33 -42 19 -7 -6 -36 -14 -65 -18 -55 -7 -62 -13 -37 -34 9
-7 14 -15 11 -17 -8 -8 -116 32 -116 43 0 17 164 61 220 60 39 -2 54 -7 66
-24 26 -38 74 -22 74 23 0 26 28 85 40 85 5 0 14 -9 20 -19z m95 -341 c8 -12
-65 -99 -82 -100 -14 0 -17 39 -7 77 7 27 76 45 89 23z"/>
    <path d="M897 1678 c-4 -79 -7 -175 -7 -214 l0 -72 -42 -5 c-24 -4 -109 -9
-191 -13 -81 -4 -149 -9 -151 -13 -3 -4 329 11 385 18 4 1 10 98 14 216 l7
215 199 0 198 0 4 -32 c4 -32 4 -32 5 5 l2 37 -208 0 -209 0 -6 -142z"/>
    <path d="M1324 1704 c12 -75 13 -95 4 -100 -4 -3 -8 -19 -8 -35 0 -18 4 -28
10 -24 6 3 10 15 10 25 0 11 9 24 20 30 24 13 25 28 4 51 -9 10 -17 33 -18 50
-1 18 -8 35 -15 37 -10 3 -12 -4 -7 -34z"/>
    <path d="M760 1690 c-16 -29 -12 -40 14 -40 28 0 39 11 30 33 -9 24 -33 28
-44 7z"/>
    <path d="M1771 1078 c-1 -20 4 -28 17 -28 9 -1 28 -7 42 -15 l25 -13 -28 -7
c-21 -6 -32 -3 -43 11 -14 18 -14 18 -12 -6 3 -24 6 -25 62 -25 33 0 64 5 70
11 6 6 24 14 40 18 l28 7 -7 -88 c-4 -48 -11 -92 -16 -98 -13 -14 -11 -43 4
-52 17 -10 10 -86 -7 -80 -18 6 -99 147 -100 176 -1 19 -7 27 -25 29 -13 2
-27 -2 -32 -9 -9 -16 7 -49 24 -49 7 0 31 -32 55 -71 l42 -70 -62 36 c-35 20
-82 46 -105 57 -47 24 -57 50 -40 104 8 25 18 37 41 44 31 9 31 9 -8 7 -35 -2
-40 -5 -52 -39 -17 -50 -47 -77 -94 -84 -22 -4 -43 -11 -47 -16 -11 -18 19
-26 46 -12 16 9 40 12 64 8 43 -7 247 -118 261 -143 14 -23 7 -84 -11 -94 -8
-5 -13 -20 -12 -35 2 -30 -9 -62 -21 -62 -11 0 -34 103 -34 155 -1 33 -5 41
-22 43 -27 4 -40 -25 -20 -47 22 -24 51 -150 38 -163 -17 -17 -133 9 -150 33
-16 23 -45 25 -62 4 -15 -19 -4 -52 21 -60 25 -8 41 -40 45 -90 3 -46 -23
-125 -41 -125 -17 0 -36 45 -23 58 12 12 -7 52 -25 52 -20 1 -58 99 -47 121 8
14 6 23 -9 38 -19 19 -46 141 -31 141 9 0 28 -39 32 -65 4 -27 42 -31 60 -7
17 25 83 54 128 56 30 1 35 4 35 26 0 32 -32 39 -51 12 -16 -23 -108 -57 -124
-47 -13 8 -2 46 18 61 22 16 11 49 -18 50 -37 0 -80 32 -80 60 0 12 -4 26 -10
29 -6 4 -4 20 5 43 40 96 38 94 65 87 35 -8 80 -6 99 5 11 7 -3 9 -49 10 -98
0 -103 -3 -124 -71 -11 -32 -25 -59 -32 -59 -7 0 -17 -7 -21 -15 -12 -21 -83
1 -83 26 0 9 -7 19 -15 23 -10 3 -15 19 -15 45 0 36 3 40 28 44 25 4 25 4 -5
6 l-33 1 0 -77 0 -78 65 -55 c36 -30 65 -62 65 -72 0 -9 8 -23 19 -30 22 -16
40 -131 22 -142 -19 -12 -12 -43 13 -63 25 -19 72 -113 56 -113 -21 0 -70 37
-70 52 0 10 -9 22 -20 28 -28 15 -65 -22 -50 -50 6 -11 15 -20 20 -20 10 0 45
-96 45 -125 0 -16 11 -21 80 -31 89 -12 105 -10 105 16 0 32 40 109 60 115 11
4 22 16 26 28 8 33 75 77 96 64 23 -15 49 8 46 42 -2 33 10 54 27 47 7 -2 21
1 31 8 13 10 16 21 11 52 -8 48 11 203 28 224 7 8 15 23 18 33 4 9 18 22 32
27 26 10 31 19 17 36 -15 18 -46 119 -47 154 0 42 -27 52 -56 21 -20 -21 -34
-25 -79 -21 -32 3 -97 36 -103 52 -3 7 -6 1 -6 -14z m253 -201 c-4 -20 -10
-27 -21 -23 -8 3 -17 6 -19 6 -6 0 -5 51 3 106 l6 48 19 -54 c11 -33 16 -66
12 -83z m-624 -77 c19 -10 46 -24 60 -30 74 -34 86 -43 98 -67 13 -30 16 -56
5 -66 -11 -12 -43 25 -43 49 0 26 -13 37 -45 38 -11 1 -46 22 -75 49 -58 50
-58 58 0 27z m403 -346 c15 -5 12 -10 -19 -34 -47 -35 -80 -29 -100 19 l-14
33 57 -6 c32 -4 66 -10 76 -12z m-287 -115 c19 -11 34 -29 34 -38 0 -17 -36
-58 -44 -50 -13 13 -42 109 -34 109 6 0 26 -9 44 -21z m89 -85 c24 -38 14 -54
-29 -44 -19 4 -37 5 -40 2 -4 -3 -6 1 -6 8 0 14 39 60 51 60 4 0 14 -12 24
-26z"/>
    <path d="M1412 962 c-13 -4 -23 -10 -23 -14 1 -5 1 -12 1 -18 0 -5 7 -10 16
-10 9 0 18 -9 21 -20 6 -22 18 -26 29 -9 4 7 -1 16 -10 21 -25 14 -19 37 12
44 46 10 48 12 12 12 -19 0 -45 -3 -58 -6z"/>
    <path d="M812 953 l77 -4 4 -47 3 -47 2 53 2 52 -82 -2 -83 -2 77 -3z"/>
    <path d="M1310 635 l-5 -140 -197 -3 -197 -2 -4 27 c-4 27 -4 27 -3 -2 l1 -30
203 -3 c160 -2 204 0 208 11 2 7 3 74 2 148 l-3 134 -5 -140z"/>
    <path d="M2025 530 c-3 -5 -4 -14 -1 -18 7 -12 -44 -59 -69 -64 -25 -4 -27
-41 -3 -46 11 -2 21 5 27 20 5 13 19 32 32 43 18 16 21 17 16 4 -3 -10 -11
-37 -18 -60 -16 -55 -15 -54 -33 -40 -12 10 -15 7 -14 -18 1 -39 22 -59 43
-41 9 7 13 20 10 28 -7 19 30 139 49 158 9 8 13 21 10 29 -7 17 -40 20 -49 5z"/>
</g>
</svg>